<svg width="30" height="22" viewBox="0 0 30 22" fill="none" xmlns="http://www.w3.org/2000/svg">
<path d="M15.9619 0.163993C14.9181 -0.140238 13.9153 0.276352 12.9533 0.883177C11.9873 1.49263 10.8147 2.45903 9.3477 3.66814L8.04747 4.73976C7.79813 4.94525 7.69731 5.02801 7.59739 5.10247C6.7513 5.73296 5.73663 6.09721 4.68272 6.14879C4.55825 6.15488 4.42782 6.15514 4.10472 6.15514L4.05274 6.15513C3.77423 6.15505 3.55963 6.15499 3.36776 6.17646C1.77197 6.35502 0.512401 7.61459 0.333839 9.21038C0.31237 9.40225 0.312431 9.61685 0.312509 9.89537V11.4328C0.312431 11.7113 0.31237 11.9259 0.333839 12.1178C0.512401 13.7135 1.77197 14.9731 3.36776 15.1517C3.55963 15.1731 3.77423 15.1731 4.05276 15.173L4.10472 15.173C4.42782 15.173 4.55825 15.1733 4.68272 15.1793C5.73663 15.2309 6.7513 15.5952 7.59739 16.2257C7.69731 16.3001 7.79813 16.3829 8.04746 16.5884L9.34768 17.66C10.8147 18.8691 11.9872 19.8355 12.9533 20.445C13.9153 21.0518 14.9181 21.4684 15.9619 21.1641C16.3083 21.0632 16.6367 20.9083 16.9349 20.7052C17.8336 20.0932 18.1499 19.0543 18.2934 17.9261C18.4376 16.793 18.4375 15.2735 18.4375 13.3724V7.95572C18.4375 6.05464 18.4376 4.53517 18.2934 3.40204C18.1499 2.27379 17.8336 1.23495 16.9349 0.622962C16.6367 0.41985 16.3083 0.264964 15.9619 0.163993Z" fill="#202020"/>
<path d="M24.4129 1.25116C24.0468 0.885039 23.4532 0.885038 23.0871 1.25115C22.721 1.61727 22.721 2.21086 23.0871 2.57698L23.9621 3.45198C24.723 4.21287 25.0591 4.55031 25.312 4.85289C28.1232 8.21702 28.1232 13.1111 25.312 16.4752C25.0591 16.7778 24.723 17.1153 23.9621 17.8762L23.0871 18.7512C22.721 19.1173 22.721 19.7109 23.0871 20.077C23.4532 20.4431 24.0468 20.4431 24.4129 20.077L25.3325 19.1574C26.0369 18.453 26.4372 18.0528 26.7507 17.6776C30.1436 13.6174 30.1436 7.71074 26.7507 3.65058C26.4372 3.27535 26.0369 2.87508 25.3324 2.17067L24.4129 1.25116Z" fill="#202020"/>
<path d="M21.9129 5.00116C21.5468 4.63504 20.9532 4.63504 20.5871 5.00116C20.221 5.36727 20.221 5.96086 20.5871 6.32698L21.0871 6.82698C21.1642 6.9041 21.1958 6.93568 21.2211 6.96174C23.2245 9.02341 23.2245 12.3047 21.2211 14.3664C21.1958 14.3925 21.1642 14.424 21.0871 14.5012L20.5871 15.0012C20.221 15.3673 20.221 15.9609 20.5871 16.327C20.9532 16.6931 21.5468 16.6931 21.9129 16.327L22.4196 15.8203C22.488 15.7519 22.5299 15.71 22.5658 15.6731C25.2763 12.8838 25.2763 8.44436 22.5658 5.65504C22.5299 5.61809 22.4881 5.57634 22.4196 5.5078L21.9129 5.00116Z" fill="#202020"/>
</svg>
